HIERARCHY
ROOT Pelvis
{
	OFFSET 0.000000 0.000000 0.000000
	CHANNELS 6 Xposition Yposition Zposition Xrotation Yrotation Zrotation
	JOINT LeftUpLeg_virtual
	{
		OFFSET 0.000000 0.000000 0.000000
		CHANNELS 3 Xrotation Yrotation Zrotation
		JOINT LeftUpLeg
		{
			OFFSET 18.735201 -5.666702 -4.541200
			CHANNELS 3 Xrotation Yrotation Zrotation
			JOINT LeftLeg
			{
				OFFSET -0.021200 -31.938179 0.493100
				CHANNELS 3 Xrotation Yrotation Zrotation
				JOINT LeftFoot
				{
					OFFSET 0.021200 -31.938179 -4.336299
					CHANNELS 3 Xrotation Yrotation Zrotation
					JOINT LeftToeBase
					{
						OFFSET 0.943001 -26.722000 15.023500
						CHANNELS 3 Xrotation Yrotation Zrotation
						End Site
						{
							OFFSET 0 0 0
						}
					}
				}
			}
		}
	}
	JOINT RightUpLeg_virtual
	{
		OFFSET 0.000000 0.000000 0.000000
		CHANNELS 3 Xrotation Yrotation Zrotation
		JOINT RightUpLeg
		{
			OFFSET -18.735201 -5.666702 -4.541200
			CHANNELS 3 Xrotation Yrotation Zrotation
			JOINT RightLeg
			{
				OFFSET 0.018946 -31.938133 0.493100
				CHANNELS 3 Xrotation Yrotation Zrotation
				JOINT RightFoot
				{
					OFFSET -0.018946 -31.938126 -4.336299
					CHANNELS 3 Xrotation Yrotation Zrotation
					JOINT RightToeBase
					{
						OFFSET -0.943001 -26.722004 15.023500
						CHANNELS 3 Xrotation Yrotation Zrotation
						End Site
						{
							OFFSET 0 0 0
						}
					}
				}
			}
		}
	}
	JOINT Hips_virtual
	{
		OFFSET 0.000000 0.000000 0.000000
		CHANNELS 3 Xrotation Yrotation Zrotation
		JOINT Hips
		{
			OFFSET -0.000000 -0.000000 -0.000000
			CHANNELS 3 Xrotation Yrotation Zrotation
			JOINT Spine
			{
				OFFSET 0.000000 10.199997 -0.299500
				CHANNELS 3 Xrotation Yrotation Zrotation
				JOINT Spine1
				{
					OFFSET 0.000000 11.900002 -1.516600
					CHANNELS 3 Xrotation Yrotation Zrotation
					JOINT Spine2
					{
						OFFSET 0.000000 13.600006 -2.842500
						CHANNELS 3 Xrotation Yrotation Zrotation
						JOINT Neck_virtual
						{
							OFFSET 0.000000 0.000000 0.000000
							CHANNELS 3 Xrotation Yrotation Zrotation
							JOINT Neck
							{
								OFFSET 0.000000 9.624100 -2.890100
								CHANNELS 3 Xrotation Yrotation Zrotation
								JOINT Head
								{
									OFFSET 0.000000 14.068802 -1.351900
									CHANNELS 3 Xrotation Yrotation Zrotation
									End Site
									{
										OFFSET 0 0 0
									}
								}
							}
						}
						JOINT LeftShoulder_virtual
						{
							OFFSET 0.000000 0.000000 0.000000
							CHANNELS 3 Xrotation Yrotation Zrotation
							JOINT LeftShoulder
							{
								OFFSET 15.263000 10.923401 -0.547700
								CHANNELS 3 Xrotation Yrotation Zrotation
								JOINT LeftArm
								{
									OFFSET 25.438599 -2.830597 -13.032500
									CHANNELS 3 Xrotation Yrotation Zrotation
									JOINT LeftForeArm
									{
										OFFSET 29.960503 0.000000 0.000000
										CHANNELS 3 Xrotation Yrotation Zrotation
										JOINT LeftHand
										{
											OFFSET 27.849251 0.000000 0.000000
											CHANNELS 3 Xrotation Yrotation Zrotation
											End Site
											{
												OFFSET 0 0 0
											}
										}
									}
								}
							}
						}
						JOINT RightShoulder_virtual
						{
							OFFSET 0.000000 0.000000 0.000000
							CHANNELS 3 Xrotation Yrotation Zrotation
							JOINT RightShoulder
							{
								OFFSET -15.263000 10.923401 -0.547700
								CHANNELS 3 Xrotation Yrotation Zrotation
								JOINT RightArm
								{
									OFFSET -25.438599 -2.830597 -13.032500
									CHANNELS 3 Xrotation Yrotation Zrotation
									JOINT RightForeArm
									{
										OFFSET -29.960503 0.000000 0.000000
										CHANNELS 3 Xrotation Yrotation Zrotation
										JOINT RightHand
										{
											OFFSET -27.849251 0.000000 0.000000
											CHANNELS 3 Xrotation Yrotation Zrotation
											End Site
											{
												OFFSET 0 0 0
											}
										}
									}
								}
							}
						}
					}
				}
			}
		}
	}
}
MOTION
Frames: 10
Frame Time: 0.03333333
1.135540 112.259346 1.784424 0.000000 0.000000 0.000000 -92.964803 0.977187 1.547468 -7.877716 15.912445 21.952993 13.362636 4.357343 1.392346 22.234247 29.568941 -33.219120 0.000000 0.000000 0.000000 -92.964803 0.977187 1.547468 -10.822214 -14.372065 -17.761562 17.042331 -6.894023 -7.961882 32.929998 -29.016717 32.781937 0.000000 0.000000 0.000000 -92.964803 0.977187 1.547468 0.000000 0.000000 0.000000 3.831046 1.365497 -0.545765 17.173686 2.320171 -1.615368 0.000000 0.000000 0.000000 15.078696 2.910057 -1.904893 -0.158228 0.060289 -1.566915 0.000000 0.000000 0.000000 15.078696 2.910057 -1.904893 0.987239 5.865643 -0.070264 17.540348 -48.233638 -39.213444 -0.000013 -78.452980 0.000000 0.000000 0.000000 0.000000 15.078696 2.910057 -1.904893 1.003567 3.077426 16.318584 -30.625308 39.526107 60.112536 179.999991 57.388732 179.999991 0.000000 0.000000 0.000000 
1.080843 112.225990 1.858152 0.000000 0.000000 0.000000 -92.872924 0.828183 1.464192 -8.128157 15.820526 22.021865 13.473963 4.427611 1.433270 22.735787 29.558388 -33.260829 0.000000 0.000000 0.000000 -92.872924 0.828183 1.464192 -11.040805 -14.348602 -17.653314 16.840350 -7.011269 -7.829752 33.330312 -28.800787 32.478765 0.000000 0.000000 0.000000 -92.872924 0.828183 1.464192 0.000000 0.000000 0.000000 3.764513 1.342833 -0.515615 16.775778 2.298675 -1.540694 0.000000 0.000000 0.000000 14.708514 2.873933 -1.840032 -0.081774 0.060474 -1.515453 0.000000 0.000000 0.000000 14.708514 2.873933 -1.840032 1.057895 5.646927 -0.072704 17.692932 -47.941118 -39.648849 -0.000030 -78.307101 -0.000032 0.000000 0.000000 0.000000 14.708514 2.873933 -1.840032 0.998587 3.039514 16.387538 -30.378356 39.942386 60.251865 179.999964 58.034492 -179.999978 0.000000 0.000000 0.000000 
1.036418 112.196686 1.967607 0.000000 0.000000 0.000000 -92.661761 0.743811 1.379598 -8.456530 15.691605 22.114583 13.506436 4.504856 1.424271 23.451810 29.545172 -33.315566 0.000000 0.000000 0.000000 -92.661761 0.743811 1.379598 -11.329277 -14.305686 -17.591335 16.462071 -7.134103 -7.632273 34.120343 -28.576402 32.208327 0.000000 0.000000 0.000000 -92.661761 0.743811 1.379598 0.000000 0.000000 0.000000 3.668284 1.290091 -0.489663 16.309074 2.217898 -1.457731 0.000000 0.000000 0.000000 14.304890 2.791179 -1.752529 -0.008611 0.061681 -1.473441 0.000000 0.000000 0.000000 14.304890 2.791179 -1.752529 1.036058 5.431824 -0.068785 17.978661 -47.538964 -40.193782 0.000043 -78.189458 0.000069 0.000000 0.000000 0.000000 14.304890 2.791179 -1.752529 1.002754 3.007375 16.447017 -30.000711 40.337673 60.294280 -179.999937 58.563278 179.999950 0.000000 0.000000 0.000000 
1.000252 112.174278 2.095695 0.000000 0.000000 0.000000 -92.243119 0.750458 1.275272 -9.008168 15.496490 22.227391 13.646808 4.690784 1.352402 24.333990 29.515839 -33.357664 0.000000 0.000000 0.000000 -92.243119 0.750458 1.275272 -11.837144 -14.221758 -17.356503 15.994846 -6.822972 -7.696859 35.666322 -28.759768 32.353189 0.000000 0.000000 0.000000 -92.243119 0.750458 1.275272 0.000000 0.000000 0.000000 3.564744 1.186580 -0.461219 15.819685 2.050239 -1.351606 0.000000 0.000000 0.000000 13.873243 2.617391 -1.626179 0.006427 0.060188 -1.434457 0.000000 0.000000 0.000000 13.873243 2.617391 -1.626179 1.007911 5.213138 -0.072448 18.126089 -46.854763 -41.156548 0.000180 -78.131497 0.000189 0.000000 0.000000 0.000000 13.873243 2.617391 -1.626179 0.964778 2.960576 16.488486 -29.252129 40.564886 59.893123 179.999991 58.618575 179.999991 0.000000 0.000000 0.000000 
0.972061 112.156570 2.271378 0.000000 0.000000 0.000000 -91.608922 0.843592 1.148635 -9.870892 15.195726 22.371076 14.000949 4.926049 1.211187 25.329097 29.466454 -33.384448 0.000000 0.000000 0.000000 -91.608922 0.843592 1.148635 -12.423589 -14.121651 -17.108724 15.717225 -6.873776 -7.779226 36.551406 -28.775594 32.458135 0.000000 0.000000 0.000000 -91.608922 0.843592 1.148635 0.000000 0.000000 0.000000 3.459383 1.066589 -0.433849 15.322288 1.836154 -1.235604 0.000000 0.000000 0.000000 13.427528 2.371647 -1.472054 0.047667 0.052826 -1.388098 0.000000 0.000000 0.000000 13.427528 2.371647 -1.472054 0.975473 4.991309 -0.080094 18.149348 -45.959257 -42.436549 0.000142 -78.113793 0.000131 0.000000 0.000000 0.000000 13.427528 2.371647 -1.472054 0.920517 2.913160 16.512392 -28.276017 40.716110 59.228983 -179.999978 58.201224 179.999964 0.000000 0.000000 0.000000 
0.949681 112.143684 2.452347 0.000000 0.000000 0.000000 -90.861351 0.988623 1.011232 -10.853516 14.867247 22.512940 14.357268 5.193300 1.040885 26.386433 29.408892 -33.402087 0.000000 0.000000 0.000000 -90.861351 0.988623 1.011232 -13.022720 -14.011405 -16.908637 15.457054 -6.893615 -7.834358 37.445081 -28.842236 32.685788 0.000000 0.000000 0.000000 -90.861351 0.988623 1.011232 0.000000 0.000000 0.000000 3.352516 0.950448 -0.405221 14.820126 1.635043 -1.127553 0.000000 0.000000 0.000000 12.974505 2.157899 -1.338860 0.040057 0.048632 -1.354892 0.000000 0.000000 0.000000 12.974505 2.157899 -1.338860 0.939453 4.766817 -0.098708 18.198850 -45.063017 -43.677021 0.000053 -78.094129 0.000056 0.000000 0.000000 0.000000 12.974505 2.157899 -1.338860 0.868486 2.864465 16.515333 -27.084149 40.772872 58.335683 -179.999991 57.490563 -179.999991 0.000000 0.000000 0.000000 
0.932517 112.134575 2.630699 0.000000 0.000000 0.000000 -90.103104 1.151832 0.876883 -11.846270 14.526375 22.642731 14.666081 5.473425 0.856782 27.462642 29.345085 -33.411858 0.000000 0.000000 0.000000 -90.103104 1.151832 0.876883 -13.582331 -13.902450 -16.725993 15.234669 -6.859902 -7.949077 38.346366 -28.924724 33.052088 0.000000 0.000000 0.000000 -90.103104 1.151832 0.876883 0.000000 0.000000 0.000000 3.244204 0.815741 -0.373941 14.311501 1.396546 -1.013137 0.000000 0.000000 0.000000 12.511442 1.904986 -1.191484 0.068375 0.052327 -1.325146 0.000000 0.000000 0.000000 12.511442 1.904986 -1.191484 0.898270 4.540048 -0.170365 18.276995 -44.009170 -44.987369 0.000086 -78.127911 0.000093 0.000000 0.000000 0.000000 12.511442 1.904986 -1.191484 0.805415 2.813788 16.502201 -25.783189 40.754923 57.315833 179.999978 56.726965 -179.999978 0.000000 0.000000 0.000000 
0.921411 112.128960 2.783722 0.000000 0.000000 0.000000 -89.437454 1.301548 0.761556 -12.643012 14.153157 22.733074 14.729571 5.745389 0.672833 28.526200 29.282988 -33.432075 0.000000 0.000000 0.000000 -89.437454 1.301548 0.761556 -14.052977 -13.808926 -16.532090 15.091124 -6.882365 -8.175012 39.066274 -28.924342 33.440896 0.000000 0.000000 0.000000 -89.437454 1.301548 0.761556 0.000000 0.000000 0.000000 3.134672 0.679948 -0.339787 13.798337 1.153066 -0.901931 0.000000 0.000000 0.000000 12.041115 1.646340 -1.046507 0.021125 0.046752 -1.274942 0.000000 0.000000 0.000000 12.041115 1.646340 -1.046507 0.855273 4.311676 -0.254123 18.379506 -42.904503 -46.306558 0.000053 -78.174397 0.000065 0.000000 0.000000 0.000000 12.041115 1.646340 -1.046507 0.735376 2.763540 16.481054 -24.580638 40.766797 56.406916 -179.999937 56.120270 179.999950 0.000000 0.000000 0.000000 
0.907001 112.124100 2.891329 0.000000 0.000000 0.000000 -88.967503 1.404707 0.685240 -13.188078 13.941162 22.796059 14.617404 5.983555 0.503022 29.483478 29.235033 -33.455967 0.000000 0.000000 0.000000 -88.967503 1.404707 0.685240 -14.350960 -13.733882 -16.690423 15.080884 -6.933865 -7.783430 39.323967 -29.005126 33.453529 0.000000 0.000000 0.000000 -88.967503 1.404707 0.685240 0.000000 0.000000 0.000000 3.024185 0.523460 -0.304974 13.279711 0.865040 -0.783413 0.000000 0.000000 0.000000 11.566060 1.418215 -0.921089 -0.000199 0.047714 -1.234687 0.000000 0.000000 0.000000 11.566060 1.418215 -0.921089 0.811670 4.082202 -0.348876 18.567854 -41.785007 -47.550220 0.000042 -78.235746 0.000021 0.000000 0.000000 0.000000 11.566060 1.418215 -0.921089 0.659128 2.714200 16.452295 -23.544197 40.816575 55.663774 -179.999923 55.861604 179.999909 0.000000 0.000000 0.000000 
0.888887 112.141632 2.974571 0.000000 0.000000 0.000000 -88.769100 1.456692 0.672222 -13.322509 14.029180 22.828647 14.265879 6.173905 0.344457 30.255727 29.213016 -33.476724 0.000000 0.000000 0.000000 -88.769100 1.456692 0.672222 -14.445242 -13.708865 -16.634014 15.162204 -6.793569 -7.894860 39.454748 -29.099847 33.789796 0.000000 0.000000 0.000000 -88.769100 1.456692 0.672222 0.000000 0.000000 0.000000 2.913173 0.387570 -0.267876 12.759068 0.619944 -0.681358 0.000000 0.000000 0.000000 11.085512 1.184712 -0.797811 -0.094903 0.065761 -1.214335 0.000000 0.000000 0.000000 11.085512 1.184712 -0.797811 0.768627 3.852128 -0.453500 18.945942 -40.816872 -48.480847 -0.000063 -78.296692 -0.000044 0.000000 0.000000 0.000000 11.085512 1.184712 -0.797811 0.577377 2.666252 16.416332 -22.515493 40.852683 54.971698 -179.999978 56.018934 179.999978 0.000000 0.000000 0.000000 
